<svg width="26" height="26" viewBox="0 0 26 26" fill="none" xmlns="http://www.w3.org/2000/svg">
<path d="M12.263 24.526C5.5034 24.526 0 19.0226 0 12.263C0 5.5034 5.5034 0 12.263 0C19.0226 0 24.526 5.5034 24.526 12.263C24.526 19.0226 19.0226 24.526 12.263 24.526ZM12.263 1.79459C6.48444 1.79459 1.79459 6.4964 1.79459 12.263C1.79459 18.0296 6.48444 22.7314 12.263 22.7314C18.0416 22.7314 22.7314 18.0296 22.7314 12.263C22.7314 6.4964 18.0416 1.79459 12.263 1.79459Z" fill="white"/>
<path d="M24.8256 25.7223C24.5983 25.7223 24.371 25.6385 24.1915 25.4591L21.7987 23.0663C21.4518 22.7193 21.4518 22.1451 21.7987 21.7981C22.1457 21.4512 22.7199 21.4512 23.0669 21.7981L25.4597 24.1909C25.8066 24.5379 25.8066 25.1121 25.4597 25.4591C25.2802 25.6385 25.0529 25.7223 24.8256 25.7223Z" fill="white"/>
</svg>
